<svg width="16" height="16" viewBox="0 0 16 16" fill="none" xmlns="http://www.w3.org/2000/svg">
<path fill-rule="evenodd" clip-rule="evenodd" d="M13.6044 9.31301C13.6063 9.70043 13.7766 10.0679 14.071 10.3197C15.0777 11.2197 14.3644 12.7597 12.9377 12.7597H10.4044C10.076 13.6559 9.22553 14.2539 8.27105 14.2597C7.31345 14.2638 6.45785 13.6622 6.13771 12.7597H3.60438C2.17771 12.7597 1.46438 11.2197 2.47105 10.3197C2.76547 10.0679 2.9358 9.70043 2.93771 9.31301V6.09301C2.93771 3.46634 5.32438 1.33301 8.27105 1.33301C11.2177 1.33301 13.6044 3.46634 13.6044 6.09301V9.31301ZM7.25771 12.7597C7.50032 13.0737 7.87424 13.2582 8.27105 13.2597C8.65845 13.2501 9.0209 13.0664 9.25771 12.7597H7.25771Z" fill="#717171"/>
</svg>
