<svg width="16" height="16" viewBox="0 0 16 16" fill="none" xmlns="http://www.w3.org/2000/svg">
<path fill-rule="evenodd" clip-rule="evenodd" d="M14.1979 10.1041L14.7045 13.6241C14.7453 13.9206 14.6444 14.219 14.4321 14.4299C14.2198 14.6409 13.9208 14.7399 13.6245 14.6974L10.1045 14.1907C9.6274 14.1249 9.18489 13.9049 8.84454 13.5641L2.35121 7.06405C1.48468 6.22714 1.13716 4.98779 1.44222 3.82236C1.74727 2.65693 2.65742 1.74678 3.82285 1.44173C4.98828 1.13668 6.22762 1.4842 7.06454 2.35072L13.5712 8.84405C13.912 9.18441 14.1321 9.62691 14.1979 10.1041ZM7.13787 7.84405C7.33309 8.03902 7.64933 8.03902 7.84454 7.84405C8.03951 7.64884 8.03951 7.3326 7.84454 7.13738L5.03787 4.33072C4.84087 4.14715 4.53387 4.15256 4.34346 4.34297C4.15305 4.53338 4.14763 4.84038 4.33121 5.03738L7.13787 7.84405Z" fill="#4CB050"/>
</svg>
